<svg xmlns="http://www.w3.org/2000/svg" width="1200" height="675" viewBox="0 0 1200 675">
  <defs>
    <linearGradient id="bg2" x1="0" y1="0" x2="1" y2="1">
      <stop offset="0%" stop-color="#0A1628"/>
      <stop offset="100%" stop-color="#0F1E38"/>
    </linearGradient>
    <linearGradient id="prod1" x1="0" y1="0" x2="1" y2="1">
      <stop offset="0%" stop-color="#E85C73"/>
      <stop offset="100%" stop-color="#C2185B"/>
    </linearGradient>
    <linearGradient id="prod2" x1="0" y1="0" x2="1" y2="1">
      <stop offset="0%" stop-color="#3B82F6"/>
      <stop offset="100%" stop-color="#1E40AF"/>
    </linearGradient>
    <linearGradient id="prod3" x1="0" y1="0" x2="1" y2="1">
      <stop offset="0%" stop-color="#10B981"/>
      <stop offset="100%" stop-color="#065F46"/>
    </linearGradient>
    <linearGradient id="prod4" x1="0" y1="0" x2="1" y2="1">
      <stop offset="0%" stop-color="#F59E0B"/>
      <stop offset="100%" stop-color="#B45309"/>
    </linearGradient>
    <linearGradient id="prod5" x1="0" y1="0" x2="1" y2="1">
      <stop offset="0%" stop-color="#8B5CF6"/>
      <stop offset="100%" stop-color="#5B21B6"/>
    </linearGradient>
    <linearGradient id="prod6" x1="0" y1="0" x2="1" y2="1">
      <stop offset="0%" stop-color="#EC4899"/>
      <stop offset="100%" stop-color="#9D174D"/>
    </linearGradient>
  </defs>

  <rect width="1200" height="675" fill="url(#bg2)"/>

  <!-- Top Nav -->
  <rect x="0" y="0" width="1200" height="58" fill="rgba(255,255,255,0.03)"/>
  <rect x="0" y="57" width="1200" height="1" fill="rgba(255,255,255,0.06)"/>
  <!-- Logo -->
  <rect x="28" y="16" width="100" height="26" rx="6" fill="rgba(255,255,255,0.08)"/>
  <rect x="38" y="25" width="60" height="8" rx="4" fill="rgba(255,255,255,0.5)"/>
  <!-- Nav links -->
  <rect x="200" y="24" width="50" height="6" rx="3" fill="rgba(255,255,255,0.25)"/>
  <rect x="268" y="24" width="60" height="6" rx="3" fill="rgba(255,255,255,0.25)"/>
  <rect x="346" y="24" width="44" height="6" rx="3" fill="rgba(255,255,255,0.55)"/>
  <rect x="408" y="24" width="56" height="6" rx="3" fill="rgba(255,255,255,0.25)"/>
  <!-- Search -->
  <rect x="600" y="14" width="360" height="30" rx="15" fill="rgba(255,255,255,0.06)" stroke="rgba(255,255,255,0.1)" stroke-width="1"/>
  <rect x="622" y="25" width="100" height="6" rx="3" fill="rgba(255,255,255,0.2)"/>
  <!-- Cart + avatar -->
  <circle cx="1120" cy="28" r="16" fill="rgba(255,255,255,0.06)"/>
  <circle cx="1160" cy="28" r="16" fill="rgba(232,92,115,0.25)"/>

  <!-- Category pills -->
  <rect x="28" y="76" width="80" height="28" rx="14" fill="#E85C73" opacity="0.9"/>
  <rect x="36" y="88" width="50" height="6" rx="3" fill="white"/>
  <rect x="120" y="76" width="100" height="28" rx="14" fill="rgba(255,255,255,0.07)" stroke="rgba(255,255,255,0.1)" stroke-width="1"/>
  <rect x="134" y="88" width="60" height="6" rx="3" fill="rgba(255,255,255,0.4)"/>
  <rect x="232" y="76" width="88" height="28" rx="14" fill="rgba(255,255,255,0.07)" stroke="rgba(255,255,255,0.1)" stroke-width="1"/>
  <rect x="246" y="88" width="55" height="6" rx="3" fill="rgba(255,255,255,0.4)"/>
  <rect x="332" y="76" width="96" height="28" rx="14" fill="rgba(255,255,255,0.07)" stroke="rgba(255,255,255,0.1)" stroke-width="1"/>
  <rect x="346" y="88" width="62" height="6" rx="3" fill="rgba(255,255,255,0.4)"/>

  <!-- Featured Banner -->
  <rect x="28" y="120" width="488" height="200" rx="16" fill="url(#prod1)" opacity="0.85"/>
  <rect x="52" y="148" width="90" height="8" rx="4" fill="rgba(255,255,255,0.5)"/>
  <rect x="52" y="166" width="200" height="16" rx="4" fill="white" opacity="0.9"/>
  <rect x="52" y="192" width="150" height="10" rx="4" fill="rgba(255,255,255,0.6)"/>
  <rect x="52" y="214" width="80" height="28" rx="14" fill="white" opacity="0.95"/>
  <rect x="66" y="225" width="50" height="7" rx="3" fill="#E85C73"/>
  <!-- Abstract product shape -->
  <circle cx="420" cy="220" r="70" fill="rgba(255,255,255,0.08)"/>
  <circle cx="420" cy="220" r="45" fill="rgba(255,255,255,0.12)"/>
  <circle cx="420" cy="220" r="22" fill="rgba(255,255,255,0.2)"/>

  <!-- Stats under banner -->
  <rect x="28" y="336" width="148" height="56" rx="10" fill="rgba(255,255,255,0.05)" stroke="rgba(255,255,255,0.08)" stroke-width="1"/>
  <rect x="44" y="350" width="50" height="10" rx="3" fill="#E85C73" opacity="0.9"/>
  <rect x="44" y="370" width="80" height="6" rx="3" fill="rgba(255,255,255,0.3)"/>
  <rect x="188" y="336" width="148" height="56" rx="10" fill="rgba(255,255,255,0.05)" stroke="rgba(255,255,255,0.08)" stroke-width="1"/>
  <rect x="204" y="350" width="60" height="10" rx="3" fill="rgba(255,255,255,0.7)"/>
  <rect x="204" y="370" width="80" height="6" rx="3" fill="rgba(255,255,255,0.3)"/>
  <rect x="348" y="336" width="168" height="56" rx="10" fill="rgba(255,255,255,0.05)" stroke="rgba(255,255,255,0.08)" stroke-width="1"/>
  <rect x="364" y="350" width="70" height="10" rx="3" fill="rgba(16,185,129,0.9)"/>
  <rect x="364" y="370" width="90" height="6" rx="3" fill="rgba(255,255,255,0.3)"/>

  <!-- Product grid - 3x2 -->
  <!-- Row 1 -->
  <!-- Card 1 -->
  <rect x="536" y="120" width="196" height="250" rx="14" fill="rgba(255,255,255,0.05)" stroke="rgba(255,255,255,0.08)" stroke-width="1"/>
  <rect x="536" y="120" width="196" height="148" rx="14" fill="url(#prod2)" opacity="0.7"/>
  <circle cx="634" cy="194" r="40" fill="rgba(255,255,255,0.1)"/>
  <circle cx="634" cy="194" r="24" fill="rgba(255,255,255,0.15)"/>
  <rect x="554" y="284" width="120" height="8" rx="4" fill="rgba(255,255,255,0.7)"/>
  <rect x="554" y="300" width="80" height="6" rx="3" fill="rgba(255,255,255,0.3)"/>
  <rect x="554" y="318" width="60" height="8" rx="3" fill="#3B82F6" opacity="0.8"/>
  <rect x="666" y="316" width="46" height="24" rx="12" fill="rgba(255,255,255,0.1)" stroke="rgba(255,255,255,0.2)" stroke-width="1"/>
  <text x="689" y="332" font-size="12" fill="rgba(255,255,255,0.6)" text-anchor="middle">+</text>

  <!-- Card 2 -->
  <rect x="748" y="120" width="196" height="250" rx="14" fill="rgba(255,255,255,0.05)" stroke="rgba(255,255,255,0.08)" stroke-width="1"/>
  <rect x="748" y="120" width="196" height="148" rx="14" fill="url(#prod3)" opacity="0.7"/>
  <rect x="790" y="150" width="112" height="88" rx="8" fill="rgba(255,255,255,0.1)"/>
  <rect x="806" y="170" width="80" height="6" rx="3" fill="rgba(255,255,255,0.4)"/>
  <rect x="806" y="184" width="60" height="4" rx="2" fill="rgba(255,255,255,0.3)"/>
  <rect x="806" y="196" width="70" height="4" rx="2" fill="rgba(255,255,255,0.3)"/>
  <rect x="766" y="284" width="120" height="8" rx="4" fill="rgba(255,255,255,0.7)"/>
  <rect x="766" y="300" width="90" height="6" rx="3" fill="rgba(255,255,255,0.3)"/>
  <rect x="766" y="318" width="55" height="8" rx="3" fill="#10B981" opacity="0.8"/>

  <!-- Card 3 -->
  <rect x="960" y="120" width="212" height="250" rx="14" fill="rgba(255,255,255,0.05)" stroke="rgba(255,255,255,0.08)" stroke-width="1"/>
  <rect x="960" y="120" width="212" height="148" rx="14" fill="url(#prod4)" opacity="0.7"/>
  <rect x="980" y="134" width="172" height="120" rx="8" fill="rgba(255,255,255,0.08)"/>
  <circle cx="1066" cy="194" r="35" fill="rgba(255,255,255,0.15)"/>
  <rect x="978" y="284" width="130" height="8" rx="4" fill="rgba(255,255,255,0.7)"/>
  <rect x="978" y="300" width="100" height="6" rx="3" fill="rgba(255,255,255,0.3)"/>
  <rect x="978" y="318" width="65" height="8" rx="3" fill="#F59E0B" opacity="0.9"/>

  <!-- Row 2 - partial visibility -->
  <rect x="536" y="388" width="196" height="200" rx="14" fill="rgba(255,255,255,0.04)" stroke="rgba(255,255,255,0.06)" stroke-width="1"/>
  <rect x="536" y="388" width="196" height="120" rx="14" fill="url(#prod5)" opacity="0.6"/>
  <rect x="748" y="388" width="196" height="200" rx="14" fill="rgba(255,255,255,0.04)" stroke="rgba(255,255,255,0.06)" stroke-width="1"/>
  <rect x="748" y="388" width="196" height="120" rx="14" fill="url(#prod6)" opacity="0.6"/>
  <rect x="960" y="388" width="212" height="200" rx="14" fill="rgba(255,255,255,0.04)" stroke="rgba(255,255,255,0.06)" stroke-width="1"/>
  <rect x="960" y="388" width="212" height="120" rx="14" fill="url(#prod1)" opacity="0.4"/>

  <!-- Pagination dots -->
  <circle cx="590" cy="606" r="5" fill="#E85C73"/>
  <circle cx="606" cy="606" r="4" fill="rgba(255,255,255,0.2)"/>
  <circle cx="622" cy="606" r="4" fill="rgba(255,255,255,0.2)"/>
</svg>
