<svg xmlns="http://www.w3.org/2000/svg" width="1200" height="675" viewBox="0 0 1200 675">
  <defs>
    <linearGradient id="bg3" x1="0" y1="0" x2="1" y2="1">
      <stop offset="0%" stop-color="#070D0A"/>
      <stop offset="100%" stop-color="#0A1410"/>
    </linearGradient>
    <linearGradient id="node-ok" x1="0" y1="0" x2="0" y2="1">
      <stop offset="0%" stop-color="#10B981"/>
      <stop offset="100%" stop-color="#065F46"/>
    </linearGradient>
    <linearGradient id="node-run" x1="0" y1="0" x2="0" y2="1">
      <stop offset="0%" stop-color="#3B82F6"/>
      <stop offset="100%" stop-color="#1E40AF"/>
    </linearGradient>
    <linearGradient id="node-warn" x1="0" y1="0" x2="0" y2="1">
      <stop offset="0%" stop-color="#F59E0B"/>
      <stop offset="100%" stop-color="#B45309"/>
    </linearGradient>
  </defs>

  <rect width="1200" height="675" fill="url(#bg3)"/>

  <!-- Subtle grid -->
  <pattern id="grid" width="40" height="40" patternUnits="userSpaceOnUse">
    <path d="M 40 0 L 0 0 0 40" fill="none" stroke="rgba(16,185,129,0.04)" stroke-width="1"/>
  </pattern>
  <rect width="1200" height="675" fill="url(#grid)"/>

  <!-- Top header bar -->
  <rect x="0" y="0" width="1200" height="56" fill="rgba(16,185,129,0.04)"/>
  <rect x="0" y="55" width="1200" height="1" fill="rgba(16,185,129,0.1)"/>
  <!-- Logo / wordmark -->
  <rect x="28" y="14" width="28" height="28" rx="6" fill="rgba(16,185,129,0.2)" stroke="rgba(16,185,129,0.5)" stroke-width="1"/>
  <text x="42" y="33" font-family="monospace" font-size="13" fill="#10B981" text-anchor="middle" font-weight="bold">P</text>
  <rect x="66" y="22" width="110" height="12" rx="4" fill="rgba(16,185,129,0.4)"/>
  <!-- Breadcrumb -->
  <rect x="220" y="24" width="60" height="8" rx="4" fill="rgba(255,255,255,0.15)"/>
  <rect x="292" y="24" width="4" height="8" rx="1" fill="rgba(255,255,255,0.1)"/>
  <rect x="306" y="24" width="80" height="8" rx="4" fill="rgba(255,255,255,0.3)"/>
  <!-- Top-right controls -->
  <rect x="940" y="14" width="100" height="28" rx="14" fill="rgba(16,185,129,0.15)" stroke="rgba(16,185,129,0.3)" stroke-width="1"/>
  <rect x="958" y="24" width="60" height="8" rx="4" fill="rgba(16,185,129,0.7)"/>
  <rect x="1054" y="14" width="120" height="28" rx="14" fill="#10B981" opacity="0.85"/>
  <rect x="1072" y="24" width="80" height="8" rx="4" fill="white"/>

  <!-- Left sidebar -->
  <rect x="0" y="56" width="200" height="619" fill="rgba(16,185,129,0.03)"/>
  <rect x="199" y="56" width="1" height="619" fill="rgba(16,185,129,0.08)"/>
  <!-- Sidebar items -->
  <rect x="16" y="76" width="168" height="36" rx="8" fill="rgba(16,185,129,0.12)" stroke="rgba(16,185,129,0.2)" stroke-width="1"/>
  <rect x="32" y="88" width="8" height="12" rx="2" fill="#10B981"/>
  <rect x="48" y="91" width="70" height="6" rx="3" fill="rgba(255,255,255,0.7)"/>
  <rect x="16" y="124" width="168" height="36" rx="8" fill="transparent"/>
  <rect x="32" y="136" width="8" height="12" rx="2" fill="rgba(255,255,255,0.2)"/>
  <rect x="48" y="139" width="80" height="6" rx="3" fill="rgba(255,255,255,0.3)"/>
  <rect x="16" y="172" width="168" height="36" rx="8" fill="transparent"/>
  <rect x="32" y="184" width="8" height="12" rx="2" fill="rgba(255,255,255,0.2)"/>
  <rect x="48" y="187" width="64" height="6" rx="3" fill="rgba(255,255,255,0.3)"/>
  <rect x="16" y="220" width="168" height="36" rx="8" fill="transparent"/>
  <rect x="32" y="232" width="8" height="12" rx="2" fill="rgba(255,255,255,0.2)"/>
  <rect x="48" y="235" width="76" height="6" rx="3" fill="rgba(255,255,255,0.3)"/>

  <!-- Divider -->
  <rect x="16" y="274" width="168" height="1" fill="rgba(255,255,255,0.06)"/>

  <!-- Recent pipelines list -->
  <rect x="16" y="284" width="80" height="5" rx="2" fill="rgba(255,255,255,0.2)"/>
  <rect x="16" y="300" width="168" height="28" rx="6" fill="rgba(255,255,255,0.04)"/>
  <circle cx="30" cy="314" r="4" fill="#10B981"/>
  <rect x="42" y="309" width="100" height="5" rx="2" fill="rgba(255,255,255,0.5)"/>
  <rect x="42" y="319" width="60" height="4" rx="2" fill="rgba(255,255,255,0.2)"/>
  <rect x="16" y="336" width="168" height="28" rx="6" fill="rgba(255,255,255,0.04)"/>
  <circle cx="30" cy="350" r="4" fill="#3B82F6"/>
  <rect x="42" y="345" width="90" height="5" rx="2" fill="rgba(255,255,255,0.5)"/>
  <rect x="42" y="355" width="70" height="4" rx="2" fill="rgba(255,255,255,0.2)"/>
  <rect x="16" y="372" width="168" height="28" rx="6" fill="rgba(255,255,255,0.04)"/>
  <circle cx="30" cy="386" r="4" fill="#10B981"/>
  <rect x="42" y="381" width="110" height="5" rx="2" fill="rgba(255,255,255,0.5)"/>
  <rect x="42" y="391" width="50" height="4" rx="2" fill="rgba(255,255,255,0.2)"/>
  <rect x="16" y="408" width="168" height="28" rx="6" fill="rgba(255,255,255,0.04)"/>
  <circle cx="30" cy="422" r="4" fill="#F59E0B"/>
  <rect x="42" y="417" width="95" height="5" rx="2" fill="rgba(255,255,255,0.5)"/>
  <rect x="42" y="427" width="65" height="4" rx="2" fill="rgba(255,255,255,0.2)"/>

  <!-- Main content area - pipeline canvas -->
  <!-- Title -->
  <rect x="224" y="76" width="200" height="14" rx="5" fill="rgba(255,255,255,0.6)"/>
  <rect x="224" y="98" width="300" height="8" rx="4" fill="rgba(255,255,255,0.2)"/>

  <!-- Status bar -->
  <rect x="224" y="124" width="940" height="40" rx="8" fill="rgba(16,185,129,0.06)" stroke="rgba(16,185,129,0.15)" stroke-width="1"/>
  <circle cx="248" cy="144" r="7" fill="#10B981"/>
  <rect x="264" y="140" width="80" height="8" rx="4" fill="rgba(255,255,255,0.6)"/>
  <rect x="380" y="140" width="60" height="8" rx="4" fill="rgba(255,255,255,0.2)"/>
  <rect x="900" y="136" width="100" height="16" rx="8" fill="rgba(16,185,129,0.2)" stroke="rgba(16,185,129,0.4)" stroke-width="1"/>
  <rect x="912" y="142" width="76" height="6" rx="3" fill="#10B981"/>

  <!-- Pipeline Flow Diagram -->
  <!-- Stage 1: SOURCE -->
  <rect x="244" y="196" width="140" height="80" rx="10" fill="rgba(16,185,129,0.12)" stroke="rgba(16,185,129,0.4)" stroke-width="1.5"/>
  <rect x="264" y="214" width="60" height="6" rx="3" fill="rgba(16,185,129,0.6)"/>
  <rect x="264" y="228" width="100" height="10" rx="4" fill="rgba(255,255,255,0.7)"/>
  <rect x="264" y="246" width="80" height="5" rx="2" fill="rgba(255,255,255,0.3)"/>
  <circle cx="348" cy="256" r="6" fill="#10B981"/>

  <!-- Arrow 1→2 -->
  <line x1="384" y1="236" x2="430" y2="236" stroke="rgba(16,185,129,0.5)" stroke-width="2"/>
  <polygon points="430,230 442,236 430,242" fill="rgba(16,185,129,0.5)"/>
  <!-- Running indicator on arrow -->
  <circle cx="408" cy="236" r="4" fill="#10B981" opacity="0.8">
    <animate attributeName="opacity" values="0.8;0.2;0.8" dur="1.5s" repeatCount="indefinite"/>
  </circle>

  <!-- Stage 2: BUILD -->
  <rect x="444" y="196" width="140" height="80" rx="10" fill="rgba(59,130,246,0.12)" stroke="rgba(59,130,246,0.4)" stroke-width="1.5"/>
  <rect x="464" y="214" width="48" height="6" rx="3" fill="rgba(59,130,246,0.6)"/>
  <rect x="464" y="228" width="100" height="10" rx="4" fill="rgba(255,255,255,0.7)"/>
  <rect x="464" y="246" width="90" height="5" rx="2" fill="rgba(255,255,255,0.3)"/>
  <circle cx="548" cy="256" r="6" fill="#3B82F6"/>

  <!-- Arrow 2→3 -->
  <line x1="584" y1="236" x2="630" y2="236" stroke="rgba(59,130,246,0.5)" stroke-width="2"/>
  <polygon points="630,230 642,236 630,242" fill="rgba(59,130,246,0.5)"/>

  <!-- Stage 3: TEST -->
  <rect x="644" y="196" width="140" height="80" rx="10" fill="rgba(16,185,129,0.12)" stroke="rgba(16,185,129,0.4)" stroke-width="1.5"/>
  <rect x="664" y="214" width="40" height="6" rx="3" fill="rgba(16,185,129,0.6)"/>
  <rect x="664" y="228" width="100" height="10" rx="4" fill="rgba(255,255,255,0.7)"/>
  <rect x="664" y="246" width="70" height="5" rx="2" fill="rgba(255,255,255,0.3)"/>
  <circle cx="748" cy="256" r="6" fill="#10B981"/>

  <!-- Arrow 3→4 -->
  <line x1="784" y1="236" x2="830" y2="236" stroke="rgba(245,158,11,0.5)" stroke-width="2" stroke-dasharray="5,3"/>
  <polygon points="830,230 842,236 830,242" fill="rgba(245,158,11,0.5)"/>

  <!-- Stage 4: STAGING -->
  <rect x="844" y="196" width="140" height="80" rx="10" fill="rgba(245,158,11,0.1)" stroke="rgba(245,158,11,0.3)" stroke-width="1.5"/>
  <rect x="864" y="214" width="60" height="6" rx="3" fill="rgba(245,158,11,0.6)"/>
  <rect x="864" y="228" width="100" height="10" rx="4" fill="rgba(255,255,255,0.5)"/>
  <rect x="864" y="246" width="80" height="5" rx="2" fill="rgba(255,255,255,0.2)"/>

  <!-- Arrow to prod (below) -->
  <line x1="914" y1="276" x2="914" y2="330" stroke="rgba(255,255,255,0.1)" stroke-width="2" stroke-dasharray="4,4"/>

  <!-- Stage 5: PRODUCTION (below) -->
  <rect x="844" y="330" width="140" height="80" rx="10" fill="rgba(255,255,255,0.04)" stroke="rgba(255,255,255,0.12)" stroke-width="1.5" stroke-dasharray="6,3"/>
  <rect x="864" y="350" width="76" height="6" rx="3" fill="rgba(255,255,255,0.25)"/>
  <rect x="864" y="366" width="100" height="10" rx="4" fill="rgba(255,255,255,0.3)"/>
  <rect x="864" y="384" width="60" height="5" rx="2" fill="rgba(255,255,255,0.15)"/>

  <!-- Parallel test stages (below build) -->
  <line x1="514" y1="276" x2="514" y2="316" stroke="rgba(16,185,129,0.3)" stroke-width="1.5"/>
  <line x1="514" y1="316" x2="410" y2="316" stroke="rgba(16,185,129,0.3)" stroke-width="1.5"/>
  <line x1="514" y1="316" x2="618" y2="316" stroke="rgba(16,185,129,0.3)" stroke-width="1.5"/>

  <rect x="340" y="316" width="140" height="64" rx="10" fill="rgba(16,185,129,0.08)" stroke="rgba(16,185,129,0.2)" stroke-width="1"/>
  <rect x="360" y="330" width="60" height="5" rx="2" fill="rgba(16,185,129,0.5)"/>
  <rect x="360" y="342" width="100" height="7" rx="3" fill="rgba(255,255,255,0.5)"/>
  <rect x="360" y="358" width="80" height="5" rx="2" fill="rgba(255,255,255,0.2)"/>

  <rect x="548" y="316" width="140" height="64" rx="10" fill="rgba(16,185,129,0.08)" stroke="rgba(16,185,129,0.2)" stroke-width="1"/>
  <rect x="568" y="330" width="72" height="5" rx="2" fill="rgba(16,185,129,0.5)"/>
  <rect x="568" y="342" width="100" height="7" rx="3" fill="rgba(255,255,255,0.5)"/>
  <rect x="568" y="358" width="90" height="5" rx="2" fill="rgba(255,255,255,0.2)"/>

  <!-- Terminal / Logs panel -->
  <rect x="224" y="440" width="590" height="210" rx="10" fill="rgba(0,0,0,0.5)" stroke="rgba(16,185,129,0.15)" stroke-width="1"/>
  <!-- Terminal title bar -->
  <rect x="224" y="440" width="590" height="32" rx="10" fill="rgba(16,185,129,0.06)"/>
  <circle cx="246" cy="456" r="5" fill="rgba(239,68,68,0.6)"/>
  <circle cx="262" cy="456" r="5" fill="rgba(245,158,11,0.6)"/>
  <circle cx="278" cy="456" r="5" fill="rgba(16,185,129,0.6)"/>
  <rect x="298" y="450" width="80" height="8" rx="4" fill="rgba(255,255,255,0.2)"/>
  <!-- Terminal lines -->
  <text x="240" y="492" font-family="monospace" font-size="11" fill="rgba(16,185,129,0.8)">$ npm run build</text>
  <text x="240" y="508" font-family="monospace" font-size="11" fill="rgba(255,255,255,0.4)">  ✓ Compiled 847 modules in 2.1s</text>
  <text x="240" y="524" font-family="monospace" font-size="11" fill="rgba(255,255,255,0.4)">  ✓ TypeScript: 0 errors</text>
  <text x="240" y="540" font-family="monospace" font-size="11" fill="rgba(16,185,129,0.6)">$ docker build -t app:latest .</text>
  <text x="240" y="556" font-family="monospace" font-size="11" fill="rgba(255,255,255,0.3)">  Step 1/8 : FROM node:22-alpine</text>
  <text x="240" y="572" font-family="monospace" font-size="11" fill="rgba(255,255,255,0.3)">  Step 2/8 : WORKDIR /app</text>
  <text x="240" y="588" font-family="monospace" font-size="11" fill="rgba(255,255,255,0.3)">  Step 3/8 : COPY package*.json ./</text>
  <text x="240" y="604" font-family="monospace" font-size="11" fill="rgba(255,255,255,0.3)">  Step 4/8 : RUN npm ci --production</text>
  <text x="240" y="620" font-family="monospace" font-size="11" fill="rgba(16,185,129,0.7)">  ✓ Successfully built a3f9c1d2e456</text>
  <!-- Cursor blink -->
  <rect x="240" y="632" width="7" height="12" rx="1" fill="#10B981" opacity="0.8"/>

  <!-- Right stats panel -->
  <rect x="830" y="440" width="334" height="210" rx="10" fill="rgba(255,255,255,0.03)" stroke="rgba(255,255,255,0.06)" stroke-width="1"/>
  <rect x="850" y="456" width="100" height="8" rx="4" fill="rgba(255,255,255,0.4)"/>
  <!-- Stat rows -->
  <rect x="850" y="480" width="294" height="1" fill="rgba(255,255,255,0.05)"/>
  <rect x="850" y="492" width="100" height="6" rx="3" fill="rgba(255,255,255,0.3)"/>
  <rect x="1060" y="490" width="80" height="10" rx="3" fill="#10B981" opacity="0.8"/>
  <rect x="850" y="514" width="294" height="1" fill="rgba(255,255,255,0.05)"/>
  <rect x="850" y="526" width="110" height="6" rx="3" fill="rgba(255,255,255,0.3)"/>
  <rect x="1040" y="524" width="100" height="10" rx="3" fill="rgba(255,255,255,0.6)"/>
  <rect x="850" y="548" width="294" height="1" fill="rgba(255,255,255,0.05)"/>
  <rect x="850" y="560" width="90" height="6" rx="3" fill="rgba(255,255,255,0.3)"/>
  <rect x="1060" y="558" width="80" height="10" rx="3" fill="rgba(59,130,246,0.7)"/>
  <rect x="850" y="582" width="294" height="1" fill="rgba(255,255,255,0.05)"/>
  <rect x="850" y="594" width="120" height="6" rx="3" fill="rgba(255,255,255,0.3)"/>
  <rect x="1020" y="592" width="120" height="10" rx="3" fill="rgba(16,185,129,0.7)"/>
  <rect x="850" y="616" width="294" height="1" fill="rgba(255,255,255,0.05)"/>
  <rect x="850" y="628" width="80" height="6" rx="3" fill="rgba(255,255,255,0.3)"/>
  <rect x="1080" y="626" width="60" height="10" rx="3" fill="rgba(245,158,11,0.7)"/>
</svg>
